<svg xmlns="http://www.w3.org/2000/svg" xmlns:xlink="http://www.w3.org/1999/xlink" width="500" zoomAndPan="magnify" viewBox="0 0 375 374.999991" height="500" preserveAspectRatio="xMidYMid meet" version="1.0"><defs><clipPath id="594c806e0b"><path d="M 134 9.84375 L 146 9.84375 L 146 48 L 134 48 Z M 134 9.84375 " clip-rule="nonzero"/></clipPath><clipPath id="2ad126c205"><path d="M 50 296 L 99 296 L 99 365.34375 L 50 365.34375 Z M 50 296 " clip-rule="nonzero"/></clipPath><clipPath id="b407c99860"><path d="M 53 296 L 99 296 L 99 365.34375 L 53 365.34375 Z M 53 296 " clip-rule="nonzero"/></clipPath><clipPath id="ee2acf4a97"><path d="M 131 296 L 180 296 L 180 365.34375 L 131 365.34375 Z M 131 296 " clip-rule="nonzero"/></clipPath><clipPath id="293a3f5093"><path d="M 134 296 L 180 296 L 180 365.34375 L 134 365.34375 Z M 134 296 " clip-rule="nonzero"/></clipPath><clipPath id="a1d2116b7d"><path d="M 213 296 L 261 296 L 261 365.34375 L 213 365.34375 Z M 213 296 " clip-rule="nonzero"/></clipPath><clipPath id="997b60d113"><path d="M 216 296 L 261 296 L 261 365.34375 L 216 365.34375 Z M 216 296 " clip-rule="nonzero"/></clipPath></defs><path fill="#ffa91a" d="M 208.429688 130.609375 C 208.429688 131.726562 208.402344 132.839844 208.347656 133.957031 C 208.292969 135.070312 208.210938 136.183594 208.101562 137.296875 C 207.992188 138.40625 207.855469 139.515625 207.691406 140.621094 C 207.527344 141.722656 207.335938 142.824219 207.117188 143.917969 C 206.902344 145.015625 206.65625 146.101562 206.386719 147.1875 C 206.113281 148.269531 205.816406 149.34375 205.492188 150.414062 C 205.167969 151.480469 204.820312 152.542969 204.441406 153.59375 C 204.066406 154.644531 203.664062 155.6875 203.238281 156.71875 C 202.8125 157.75 202.359375 158.769531 201.882812 159.777344 C 201.40625 160.789062 200.902344 161.785156 200.378906 162.769531 C 199.851562 163.753906 199.300781 164.726562 198.726562 165.683594 C 198.15625 166.640625 197.558594 167.582031 196.9375 168.511719 C 196.316406 169.441406 195.675781 170.351562 195.011719 171.25 C 194.347656 172.148438 193.660156 173.027344 192.953125 173.890625 C 192.242188 174.753906 191.515625 175.597656 190.765625 176.425781 C 190.015625 177.253906 189.246094 178.0625 188.457031 178.851562 C 187.667969 179.640625 186.859375 180.410156 186.035156 181.160156 C 185.207031 181.910156 184.363281 182.636719 183.5 183.347656 C 182.636719 184.054688 181.757812 184.742188 180.859375 185.40625 C 179.964844 186.070312 179.050781 186.714844 178.125 187.335938 C 177.195312 187.957031 176.253906 188.550781 175.296875 189.125 C 174.339844 189.699219 173.371094 190.25 172.386719 190.777344 C 171.402344 191.304688 170.40625 191.804688 169.394531 192.28125 C 168.386719 192.761719 167.367188 193.210938 166.335938 193.640625 C 165.304688 194.066406 164.265625 194.46875 163.214844 194.84375 C 162.164062 195.21875 161.101562 195.570312 160.035156 195.894531 C 158.96875 196.21875 157.890625 196.515625 156.808594 196.789062 C 155.726562 197.058594 154.640625 197.304688 153.542969 197.523438 C 152.449219 197.738281 151.351562 197.929688 150.246094 198.09375 C 149.144531 198.257812 148.035156 198.394531 146.925781 198.503906 C 145.816406 198.613281 144.703125 198.695312 143.585938 198.75 C 142.472656 198.804688 141.359375 198.832031 140.242188 198.832031 C 139.125 198.832031 138.011719 198.804688 136.894531 198.75 C 135.78125 198.695312 134.667969 198.613281 133.558594 198.503906 C 132.449219 198.394531 131.339844 198.257812 130.238281 198.09375 C 129.132812 197.929688 128.035156 197.738281 126.9375 197.523438 C 125.84375 197.304688 124.757812 197.058594 123.671875 196.789062 C 122.589844 196.515625 121.515625 196.21875 120.449219 195.894531 C 119.378906 195.570312 118.320312 195.21875 117.269531 194.84375 C 116.21875 194.46875 115.179688 194.066406 114.148438 193.640625 C 113.117188 193.210938 112.097656 192.761719 111.089844 192.28125 C 110.078125 191.804688 109.082031 191.304688 108.097656 190.777344 C 107.113281 190.25 106.144531 189.699219 105.1875 189.125 C 104.230469 188.550781 103.285156 187.957031 102.359375 187.335938 C 101.429688 186.714844 100.519531 186.070312 99.621094 185.40625 C 98.726562 184.742188 97.847656 184.054688 96.984375 183.347656 C 96.121094 182.636719 95.277344 181.910156 94.449219 181.160156 C 93.625 180.410156 92.816406 179.640625 92.027344 178.851562 C 91.238281 178.0625 90.46875 177.253906 89.71875 176.425781 C 88.96875 175.597656 88.238281 174.753906 87.53125 173.890625 C 86.824219 173.027344 86.136719 172.148438 85.472656 171.25 C 84.808594 170.351562 84.164062 169.441406 83.546875 168.511719 C 82.925781 167.582031 82.328125 166.640625 81.753906 165.683594 C 81.183594 164.726562 80.632812 163.753906 80.105469 162.769531 C 79.578125 161.785156 79.078125 160.789062 78.601562 159.777344 C 78.125 158.769531 77.671875 157.75 77.246094 156.71875 C 76.816406 155.6875 76.417969 154.644531 76.039062 153.59375 C 75.664062 152.542969 75.316406 151.480469 74.992188 150.414062 C 74.667969 149.34375 74.367188 148.269531 74.097656 147.1875 C 73.828125 146.101562 73.582031 145.015625 73.363281 143.917969 C 73.148438 142.824219 72.957031 141.722656 72.792969 140.621094 C 72.628906 139.515625 72.492188 138.40625 72.382812 137.296875 C 72.273438 136.183594 72.191406 135.070312 72.136719 133.957031 C 72.082031 132.839844 72.054688 131.726562 72.054688 130.609375 C 72.054688 129.492188 72.082031 128.375 72.136719 127.261719 C 72.191406 126.148438 72.273438 125.035156 72.382812 123.921875 C 72.492188 122.8125 72.628906 121.703125 72.792969 120.597656 C 72.957031 119.496094 73.148438 118.394531 73.363281 117.300781 C 73.582031 116.203125 73.828125 115.117188 74.097656 114.03125 C 74.367188 112.949219 74.667969 111.875 74.992188 110.804688 C 75.316406 109.738281 75.664062 108.675781 76.039062 107.625 C 76.417969 106.574219 76.816406 105.53125 77.246094 104.5 C 77.671875 103.46875 78.125 102.449219 78.601562 101.441406 C 79.078125 100.429688 79.578125 99.433594 80.105469 98.449219 C 80.632812 97.464844 81.183594 96.492188 81.753906 95.535156 C 82.328125 94.578125 82.925781 93.632812 83.546875 92.707031 C 84.167969 91.777344 84.808594 90.867188 85.472656 89.96875 C 86.136719 89.070312 86.824219 88.191406 87.53125 87.328125 C 88.238281 86.464844 88.96875 85.621094 89.71875 84.792969 C 90.46875 83.964844 91.238281 83.15625 92.027344 82.367188 C 92.816406 81.578125 93.625 80.808594 94.449219 80.058594 C 95.277344 79.308594 96.121094 78.582031 96.984375 77.871094 C 97.847656 77.164062 98.726562 76.476562 99.621094 75.8125 C 100.519531 75.148438 101.429688 74.503906 102.359375 73.882812 C 103.285156 73.261719 104.230469 72.667969 105.1875 72.09375 C 106.144531 71.519531 107.113281 70.96875 108.097656 70.441406 C 109.082031 69.914062 110.078125 69.414062 111.089844 68.9375 C 112.097656 68.457031 113.117188 68.007812 114.148438 67.578125 C 115.179688 67.152344 116.21875 66.75 117.269531 66.375 C 118.320312 65.996094 119.378906 65.648438 120.449219 65.324219 C 121.515625 65 122.589844 64.703125 123.671875 64.429688 C 124.757812 64.160156 125.84375 63.914062 126.9375 63.695312 C 128.035156 63.480469 129.132812 63.289062 130.238281 63.125 C 131.339844 62.960938 132.449219 62.824219 133.558594 62.714844 C 134.667969 62.605469 135.78125 62.523438 136.894531 62.46875 C 138.011719 62.414062 139.125 62.386719 140.242188 62.386719 C 141.359375 62.386719 142.472656 62.414062 143.585938 62.46875 C 144.703125 62.523438 145.816406 62.605469 146.925781 62.714844 C 148.035156 62.824219 149.144531 62.960938 150.246094 63.125 C 151.351562 63.289062 152.449219 63.480469 153.542969 63.695312 C 154.640625 63.914062 155.726562 64.160156 156.808594 64.429688 C 157.890625 64.703125 158.96875 65 160.035156 65.324219 C 161.101562 65.648438 162.164062 65.996094 163.214844 66.375 C 164.265625 66.75 165.304688 67.152344 166.335938 67.578125 C 167.367188 68.007812 168.386719 68.457031 169.394531 68.9375 C 170.40625 69.414062 171.402344 69.914062 172.386719 70.441406 C 173.371094 70.96875 174.339844 71.519531 175.296875 72.09375 C 176.253906 72.667969 177.195312 73.261719 178.125 73.882812 C 179.050781 74.503906 179.964844 75.148438 180.859375 75.8125 C 181.757812 76.476562 182.636719 77.164062 183.5 77.871094 C 184.363281 78.582031 185.207031 79.308594 186.035156 80.058594 C 186.859375 80.808594 187.667969 81.578125 188.457031 82.367188 C 189.246094 83.15625 190.015625 83.964844 190.765625 84.792969 C 191.515625 85.621094 192.242188 86.464844 192.953125 87.328125 C 193.660156 88.191406 194.347656 89.070312 195.011719 89.96875 C 195.675781 90.867188 196.316406 91.777344 196.9375 92.707031 C 197.558594 93.632812 198.15625 94.578125 198.726562 95.535156 C 199.300781 96.492188 199.851562 97.464844 200.378906 98.449219 C 200.902344 99.433594 201.40625 100.429688 201.882812 101.441406 C 202.359375 102.449219 202.8125 103.46875 203.238281 104.5 C 203.664062 105.53125 204.066406 106.574219 204.441406 107.625 C 204.820312 108.675781 205.167969 109.738281 205.492188 110.804688 C 205.816406 111.875 206.113281 112.949219 206.386719 114.03125 C 206.65625 115.117188 206.902344 116.203125 207.117188 117.300781 C 207.335938 118.394531 207.527344 119.496094 207.691406 120.597656 C 207.855469 121.703125 207.992188 122.8125 208.101562 123.921875 C 208.210938 125.035156 208.292969 126.148438 208.347656 127.261719 C 208.402344 128.375 208.429688 129.492188 208.429688 130.609375 Z M 208.429688 130.609375 " fill-opacity="1" fill-rule="nonzero"/><path fill="#f79219" d="M 191.484375 130.609375 C 191.484375 132.289062 191.402344 133.964844 191.238281 135.632812 C 191.070312 137.304688 190.824219 138.964844 190.5 140.609375 C 190.171875 142.257812 189.765625 143.886719 189.277344 145.492188 C 188.789062 147.097656 188.226562 148.675781 187.582031 150.230469 C 186.941406 151.78125 186.222656 153.296875 185.433594 154.777344 C 184.640625 156.257812 183.78125 157.695312 182.847656 159.09375 C 181.914062 160.488281 180.917969 161.835938 179.851562 163.132812 C 178.789062 164.429688 177.660156 165.675781 176.476562 166.863281 C 175.289062 168.050781 174.046875 169.175781 172.75 170.242188 C 171.453125 171.304688 170.105469 172.304688 168.710938 173.238281 C 167.316406 174.171875 165.875 175.03125 164.398438 175.824219 C 162.917969 176.617188 161.402344 177.332031 159.851562 177.976562 C 158.300781 178.617188 156.722656 179.183594 155.117188 179.671875 C 153.511719 180.15625 151.882812 180.566406 150.238281 180.894531 C 148.59375 181.21875 146.933594 181.464844 145.265625 181.632812 C 143.59375 181.796875 141.921875 181.878906 140.242188 181.878906 C 138.5625 181.878906 136.890625 181.796875 135.21875 181.632812 C 133.550781 181.464844 131.890625 181.21875 130.246094 180.894531 C 128.597656 180.566406 126.972656 180.15625 125.367188 179.671875 C 123.761719 179.183594 122.183594 178.617188 120.632812 177.976562 C 119.082031 177.332031 117.566406 176.617188 116.085938 175.824219 C 114.605469 175.03125 113.167969 174.171875 111.773438 173.238281 C 110.378906 172.304688 109.03125 171.304688 107.734375 170.242188 C 106.4375 169.175781 105.195312 168.050781 104.007812 166.863281 C 102.820312 165.675781 101.695312 164.429688 100.632812 163.132812 C 99.566406 161.835938 98.570312 160.488281 97.636719 159.09375 C 96.703125 157.695312 95.84375 156.257812 95.050781 154.777344 C 94.261719 153.296875 93.542969 151.78125 92.902344 150.230469 C 92.257812 148.675781 91.695312 147.097656 91.207031 145.492188 C 90.71875 143.886719 90.3125 142.257812 89.984375 140.609375 C 89.65625 138.964844 89.410156 137.304688 89.246094 135.632812 C 89.082031 133.964844 89 132.289062 89 130.609375 C 89 128.929688 89.082031 127.253906 89.246094 125.585938 C 89.410156 123.914062 89.65625 122.253906 89.984375 120.605469 C 90.3125 118.960938 90.71875 117.332031 91.207031 115.726562 C 91.695312 114.121094 92.257812 112.539062 92.902344 110.988281 C 93.542969 109.4375 94.261719 107.921875 95.050781 106.441406 C 95.84375 104.960938 96.703125 103.523438 97.636719 102.125 C 98.570312 100.730469 99.566406 99.382812 100.632812 98.085938 C 101.695312 96.785156 102.820312 95.542969 104.007812 94.355469 C 105.195312 93.167969 106.4375 92.042969 107.734375 90.976562 C 109.03125 89.914062 110.378906 88.914062 111.773438 87.980469 C 113.167969 87.046875 114.605469 86.1875 116.085938 85.394531 C 117.566406 84.601562 119.082031 83.886719 120.632812 83.242188 C 122.183594 82.601562 123.761719 82.035156 125.367188 81.546875 C 126.972656 81.0625 128.597656 80.652344 130.246094 80.324219 C 131.890625 80 133.550781 79.753906 135.21875 79.585938 C 136.890625 79.421875 138.5625 79.339844 140.242188 79.339844 C 141.921875 79.339844 143.59375 79.421875 145.265625 79.585938 C 146.933594 79.753906 148.59375 80 150.238281 80.324219 C 151.882812 80.652344 153.511719 81.0625 155.117188 81.546875 C 156.722656 82.035156 158.300781 82.601562 159.851562 83.242188 C 161.402344 83.886719 162.917969 84.601562 164.398438 85.394531 C 165.878906 86.1875 167.316406 87.046875 168.710938 87.980469 C 170.105469 88.914062 171.453125 89.914062 172.75 90.976562 C 174.046875 92.042969 175.289062 93.167969 176.476562 94.355469 C 177.660156 95.542969 178.789062 96.785156 179.851562 98.085938 C 180.917969 99.382812 181.914062 100.730469 182.847656 102.125 C 183.78125 103.523438 184.640625 104.960938 185.433594 106.441406 C 186.222656 107.921875 186.941406 109.4375 187.582031 110.988281 C 188.226562 112.539062 188.789062 114.121094 189.277344 115.726562 C 189.765625 117.332031 190.171875 118.960938 190.5 120.605469 C 190.824219 122.253906 191.070312 123.914062 191.238281 125.585938 C 191.402344 127.253906 191.484375 128.929688 191.484375 130.609375 Z M 191.484375 130.609375 " fill-opacity="1" fill-rule="nonzero"/><path fill="#ef7816" d="M 170.605469 130.609375 C 170.605469 131.605469 170.554688 132.597656 170.457031 133.585938 C 170.359375 134.578125 170.214844 135.558594 170.019531 136.535156 C 169.828125 137.511719 169.585938 138.476562 169.296875 139.425781 C 169.007812 140.378906 168.671875 141.316406 168.292969 142.234375 C 167.910156 143.152344 167.488281 144.050781 167.019531 144.929688 C 166.550781 145.808594 166.039062 146.660156 165.488281 147.484375 C 164.933594 148.3125 164.34375 149.113281 163.710938 149.878906 C 163.082031 150.648438 162.414062 151.386719 161.710938 152.089844 C 161.007812 152.792969 160.273438 153.460938 159.503906 154.089844 C 158.734375 154.722656 157.9375 155.316406 157.109375 155.867188 C 156.28125 156.421875 155.429688 156.929688 154.554688 157.398438 C 153.675781 157.867188 152.78125 158.292969 151.859375 158.675781 C 150.941406 159.054688 150.007812 159.390625 149.054688 159.679688 C 148.105469 159.96875 147.140625 160.210938 146.164062 160.402344 C 145.191406 160.597656 144.207031 160.742188 143.21875 160.839844 C 142.226562 160.9375 141.234375 160.988281 140.242188 160.988281 C 139.246094 160.988281 138.253906 160.9375 137.265625 160.839844 C 136.277344 160.742188 135.292969 160.597656 134.320312 160.402344 C 133.34375 160.210938 132.378906 159.96875 131.429688 159.679688 C 130.476562 159.390625 129.542969 159.054688 128.621094 158.675781 C 127.703125 158.292969 126.804688 157.867188 125.929688 157.398438 C 125.050781 156.929688 124.199219 156.421875 123.375 155.867188 C 122.546875 155.316406 121.75 154.722656 120.980469 154.089844 C 120.210938 153.460938 119.476562 152.792969 118.773438 152.089844 C 118.070312 151.386719 117.402344 150.648438 116.773438 149.878906 C 116.140625 149.113281 115.550781 148.3125 114.996094 147.484375 C 114.445312 146.660156 113.933594 145.808594 113.464844 144.929688 C 112.996094 144.050781 112.570312 143.152344 112.191406 142.234375 C 111.8125 141.316406 111.476562 140.378906 111.1875 139.425781 C 110.898438 138.476562 110.65625 137.511719 110.464844 136.535156 C 110.269531 135.558594 110.125 134.578125 110.027344 133.585938 C 109.929688 132.597656 109.878906 131.605469 109.878906 130.609375 C 109.878906 129.613281 109.929688 128.621094 110.027344 127.632812 C 110.125 126.640625 110.269531 125.660156 110.464844 124.683594 C 110.65625 123.707031 110.898438 122.742188 111.1875 121.792969 C 111.476562 120.839844 111.8125 119.902344 112.191406 118.984375 C 112.570312 118.066406 112.996094 117.167969 113.464844 116.289062 C 113.933594 115.410156 114.445312 114.558594 114.996094 113.730469 C 115.550781 112.90625 116.140625 112.105469 116.773438 111.335938 C 117.402344 110.570312 118.070312 109.832031 118.773438 109.128906 C 119.476562 108.425781 120.210938 107.757812 120.980469 107.125 C 121.75 106.496094 122.546875 105.902344 123.375 105.351562 C 124.199219 104.796875 125.050781 104.289062 125.929688 103.820312 C 126.804688 103.347656 127.703125 102.925781 128.621094 102.542969 C 129.542969 102.164062 130.476562 101.828125 131.429688 101.539062 C 132.378906 101.25 133.34375 101.007812 134.320312 100.816406 C 135.292969 100.621094 136.277344 100.476562 137.265625 100.378906 C 138.253906 100.28125 139.246094 100.230469 140.242188 100.230469 C 141.234375 100.230469 142.226562 100.28125 143.21875 100.378906 C 144.207031 100.476562 145.191406 100.621094 146.164062 100.816406 C 147.140625 101.007812 148.105469 101.25 149.054688 101.539062 C 150.007812 101.828125 150.941406 102.164062 151.859375 102.542969 C 152.78125 102.925781 153.675781 103.347656 154.554688 103.820312 C 155.429688 104.289062 156.28125 104.796875 157.109375 105.351562 C 157.9375 105.902344 158.734375 106.496094 159.503906 107.125 C 160.273438 107.757812 161.007812 108.425781 161.710938 109.128906 C 162.414062 109.832031 163.082031 110.570312 163.710938 111.335938 C 164.34375 112.105469 164.933594 112.90625 165.488281 113.730469 C 166.039062 114.558594 166.550781 115.410156 167.019531 116.289062 C 167.488281 117.167969 167.910156 118.066406 168.292969 118.984375 C 168.671875 119.902344 169.007812 120.839844 169.296875 121.792969 C 169.585938 122.742188 169.828125 123.707031 170.019531 124.683594 C 170.214844 125.660156 170.359375 126.640625 170.457031 127.632812 C 170.554688 128.621094 170.605469 129.613281 170.605469 130.609375 Z M 170.605469 130.609375 " fill-opacity="1" fill-rule="nonzero"/><g clip-path="url(#594c806e0b)"><path fill="#ffa91a" d="M 140.242188 47.828125 C 137.167969 47.828125 134.675781 45.335938 134.675781 42.261719 L 134.675781 15.484375 C 134.675781 12.410156 137.167969 9.917969 140.242188 9.917969 C 143.316406 9.917969 145.804688 12.410156 145.804688 15.484375 L 145.804688 42.265625 C 145.804688 45.335938 143.316406 47.828125 140.242188 47.828125 Z M 140.242188 47.828125 " fill-opacity="1" fill-rule="nonzero"/></g><path fill="#ffa91a" d="M 140.242188 251.304688 C 137.167969 251.304688 134.675781 248.8125 134.675781 245.738281 L 134.675781 218.957031 C 134.675781 215.882812 137.167969 213.390625 140.242188 213.390625 C 143.316406 213.390625 145.804688 215.882812 145.804688 218.957031 L 145.804688 245.738281 C 145.804688 248.8125 143.316406 251.304688 140.242188 251.304688 Z M 140.242188 251.304688 " fill-opacity="1" fill-rule="nonzero"/><path fill="#ffa91a" d="M 222.976562 130.609375 C 222.976562 127.535156 225.46875 125.042969 228.542969 125.042969 L 255.308594 125.042969 C 258.382812 125.042969 260.871094 127.535156 260.871094 130.609375 C 260.871094 133.683594 258.382812 136.175781 255.308594 136.175781 L 228.542969 136.175781 C 225.46875 136.175781 222.976562 133.683594 222.976562 130.609375 Z M 222.976562 130.609375 " fill-opacity="1" fill-rule="nonzero"/><path fill="#ffa91a" d="M 19.609375 130.609375 C 19.609375 127.535156 22.101562 125.042969 25.175781 125.042969 L 51.941406 125.042969 C 55.015625 125.042969 57.503906 127.535156 57.503906 130.609375 C 57.503906 133.683594 55.015625 136.175781 51.941406 136.175781 L 25.175781 136.175781 C 22.101562 136.175781 19.609375 133.683594 19.609375 130.609375 Z M 19.609375 130.609375 " fill-opacity="1" fill-rule="nonzero"/><path fill="#ffa91a" d="M 198.746094 72.074219 C 196.574219 69.902344 196.574219 66.375 198.746094 64.203125 L 217.671875 45.265625 C 219.84375 43.09375 223.367188 43.09375 225.539062 45.265625 C 227.710938 47.441406 227.710938 50.964844 225.539062 53.140625 L 206.613281 72.074219 C 204.441406 74.25 200.917969 74.25 198.746094 72.074219 Z M 198.746094 72.074219 " fill-opacity="1" fill-rule="nonzero"/><path fill="#ffa91a" d="M 54.941406 215.953125 C 52.769531 213.78125 52.769531 210.253906 54.941406 208.082031 L 73.867188 189.144531 C 76.039062 186.972656 79.5625 186.972656 81.738281 189.144531 C 83.910156 191.320312 83.910156 194.84375 81.738281 197.019531 L 62.8125 215.953125 C 60.640625 218.128906 57.117188 218.128906 54.941406 215.953125 Z M 54.941406 215.953125 " fill-opacity="1" fill-rule="nonzero"/><path fill="#ffa91a" d="M 198.746094 189.144531 C 200.917969 186.96875 204.441406 186.96875 206.613281 189.144531 L 225.539062 208.078125 C 227.710938 210.253906 227.710938 213.777344 225.539062 215.953125 C 223.367188 218.125 219.84375 218.125 217.671875 215.953125 L 198.746094 197.015625 C 196.570312 194.84375 196.570312 191.320312 198.746094 189.144531 Z M 198.746094 189.144531 " fill-opacity="1" fill-rule="nonzero"/><path fill="#ffa91a" d="M 54.941406 45.265625 C 57.113281 43.09375 60.640625 43.09375 62.8125 45.265625 L 81.738281 64.203125 C 83.910156 66.375 83.910156 69.902344 81.738281 72.074219 C 79.5625 74.25 76.039062 74.25 73.867188 72.074219 L 54.941406 53.140625 C 52.769531 50.964844 52.769531 47.441406 54.941406 45.265625 Z M 54.941406 45.265625 " fill-opacity="1" fill-rule="nonzero"/><path fill="#478cf7" d="M 328.757812 137.011719 C 323.1875 118.996094 306.410156 105.910156 286.574219 105.910156 C 281.726562 105.910156 277.058594 106.695312 272.695312 108.140625 C 261.839844 93.671875 244.554688 84.308594 225.082031 84.308594 C 194.652344 84.308594 169.5625 107.164062 166.019531 136.652344 C 138.605469 139.605469 117.261719 162.828125 117.261719 191.042969 C 117.261719 221.257812 141.742188 245.753906 171.941406 245.753906 L 320.128906 245.753906 C 350.324219 245.753906 374.808594 221.257812 374.808594 191.042969 C 374.808594 163.765625 354.859375 141.152344 328.757812 137.011719 Z M 328.757812 137.011719 " fill-opacity="1" fill-rule="nonzero"/><path fill="#377de2" d="M 354.113281 148.183594 C 361.527344 157.519531 365.957031 169.332031 365.957031 182.183594 C 365.957031 212.398438 341.476562 236.894531 311.273438 236.894531 L 163.089844 236.894531 C 150.246094 236.894531 138.4375 232.460938 129.105469 225.042969 C 139.121094 237.660156 154.585938 245.75 171.941406 245.75 L 320.128906 245.75 C 350.324219 245.75 374.808594 221.253906 374.808594 191.039062 C 374.808594 173.679688 366.722656 158.203125 354.113281 148.183594 Z M 354.113281 148.183594 " fill-opacity="1" fill-rule="nonzero"/><path fill="#f1f2f2" d="M 251.089844 219.007812 C 247.101562 194.21875 225.625 175.285156 199.726562 175.285156 C 189.269531 175.285156 179.535156 178.371094 171.378906 183.683594 C 158.363281 164.058594 136.078125 151.117188 110.777344 151.117188 C 71.800781 151.117188 39.992188 181.808594 38.171875 220.355469 C 16.382812 225.597656 0.191406 245.226562 0.191406 268.636719 C 0.191406 296.0625 22.410156 318.292969 49.820312 318.292969 L 249.355469 318.292969 C 276.765625 318.292969 298.988281 296.0625 298.988281 268.636719 C 298.984375 241.789062 277.695312 219.921875 251.089844 219.007812 Z M 251.089844 219.007812 " fill-opacity="1" fill-rule="nonzero"/><path fill="#ffffff" d="M 15.96875 291.550781 C 14.710938 291.550781 13.523438 290.878906 12.90625 289.78125 C 12.425781 288.949219 12.304688 287.992188 12.550781 287.085938 C 12.800781 286.167969 13.382812 285.40625 14.199219 284.945312 C 15.847656 283.988281 18.09375 284.609375 19.03125 286.21875 C 19.03125 286.238281 19.03125 286.238281 19.03125 286.238281 C 19.511719 287.070312 19.632812 288.027344 19.386719 288.929688 C 19.136719 289.851562 18.550781 290.613281 17.722656 291.089844 C 17.191406 291.390625 16.589844 291.550781 15.96875 291.550781 Z M 11.277344 278.265625 C 9.523438 278.265625 8.054688 277.007812 7.789062 275.273438 C 7.453125 273.09375 7.277344 270.863281 7.277344 268.628906 C 7.257812 248.863281 20.660156 231.839844 39.832031 227.234375 L 45.003906 225.996094 L 45.25 220.683594 C 46.898438 185.644531 75.683594 158.207031 110.773438 158.207031 C 132.832031 158.207031 153.28125 169.191406 165.476562 187.59375 C 166.554688 189.222656 166.113281 191.4375 164.484375 192.519531 C 162.90625 193.5625 160.625 193.085938 159.578125 191.527344 C 148.695312 175.089844 130.4375 165.292969 110.773438 165.292969 C 79.46875 165.292969 53.800781 189.773438 52.3125 221.019531 L 51.941406 228.988281 C 51.871094 230.546875 50.753906 231.894531 49.234375 232.265625 L 41.476562 234.125 C 25.507812 237.988281 14.359375 252.175781 14.339844 268.628906 C 14.339844 270.472656 14.5 272.332031 14.78125 274.175781 L 14.78125 274.191406 C 15.066406 276.105469 13.753906 277.914062 11.824219 278.214844 C 11.648438 278.25 11.472656 278.265625 11.277344 278.265625 Z M 11.277344 278.265625 " fill-opacity="1" fill-rule="nonzero"/><path fill="#e6e7e8" d="M 274.46875 225.796875 C 278.800781 233.164062 281.285156 241.753906 281.285156 250.921875 C 281.285156 278.34375 259.0625 300.578125 231.652344 300.578125 L 32.117188 300.578125 C 22.953125 300.578125 14.371094 298.09375 7.003906 293.761719 C 15.628906 308.4375 31.574219 318.289062 49.820312 318.289062 L 249.355469 318.289062 C 276.765625 318.289062 298.988281 296.058594 298.988281 268.632812 C 298.988281 250.378906 289.136719 234.421875 274.46875 225.796875 Z M 274.46875 225.796875 " fill-opacity="1" fill-rule="nonzero"/><path fill="#d1d3d4" d="M 279.742188 229.375 C 286.257812 237.773438 290.132812 248.324219 290.132812 259.777344 C 290.132812 287.199219 267.914062 309.433594 240.503906 309.433594 L 40.96875 309.433594 C 29.519531 309.433594 18.976562 305.554688 10.582031 299.039062 C 19.660156 310.75 33.859375 318.289062 49.820312 318.289062 L 249.355469 318.289062 C 276.765625 318.289062 298.988281 296.058594 298.988281 268.632812 C 298.988281 252.664062 291.449219 238.457031 279.742188 229.375 Z M 279.742188 229.375 " fill-opacity="1" fill-rule="nonzero"/><g clip-path="url(#2ad126c205)"><path fill="#478cf7" d="M 98.023438 341.554688 C 98.023438 354.75 87.332031 365.449219 74.140625 365.449219 C 60.953125 365.449219 50.261719 354.75 50.261719 341.554688 C 50.261719 331.09375 65.273438 307.066406 71.492188 297.558594 C 72.746094 295.644531 75.539062 295.644531 76.792969 297.558594 C 83.011719 307.066406 98.023438 331.09375 98.023438 341.554688 Z M 98.023438 341.554688 " fill-opacity="1" fill-rule="nonzero"/></g><g clip-path="url(#b407c99860)"><path fill="#377de2" d="M 76.789062 297.558594 C 75.886719 296.179688 74.183594 295.792969 72.832031 296.40625 C 79.828125 307.753906 89.171875 324.445312 89.171875 332.699219 C 89.171875 345.894531 78.480469 356.589844 65.289062 356.589844 C 60.96875 356.589844 56.914062 355.445312 53.417969 353.433594 C 57.539062 360.613281 65.277344 365.449219 74.140625 365.449219 C 87.332031 365.449219 98.023438 354.75 98.023438 341.554688 C 98.023438 331.09375 83.011719 307.066406 76.789062 297.558594 Z M 76.789062 297.558594 " fill-opacity="1" fill-rule="nonzero"/></g><g clip-path="url(#ee2acf4a97)"><path fill="#478cf7" d="M 179.445312 341.554688 C 179.445312 354.75 168.753906 365.449219 155.566406 365.449219 C 142.375 365.449219 131.6875 354.75 131.6875 341.554688 C 131.6875 331.09375 146.695312 307.066406 152.914062 297.558594 C 154.167969 295.644531 156.964844 295.644531 158.214844 297.558594 C 164.4375 307.066406 179.445312 331.09375 179.445312 341.554688 Z M 179.445312 341.554688 " fill-opacity="1" fill-rule="nonzero"/></g><g clip-path="url(#293a3f5093)"><path fill="#377de2" d="M 158.214844 297.558594 C 157.3125 296.179688 155.609375 295.792969 154.257812 296.40625 C 161.257812 307.753906 170.597656 324.445312 170.597656 332.699219 C 170.597656 345.894531 159.90625 356.589844 146.714844 356.589844 C 142.394531 356.589844 138.339844 355.445312 134.84375 353.433594 C 138.964844 360.613281 146.703125 365.449219 155.566406 365.449219 C 168.757812 365.449219 179.449219 354.75 179.449219 341.554688 C 179.445312 331.09375 164.4375 307.066406 158.214844 297.558594 Z M 158.214844 297.558594 " fill-opacity="1" fill-rule="nonzero"/></g><path fill="#478cf7" d="M 138.734375 258.820312 C 138.734375 272.015625 128.042969 282.714844 114.851562 282.714844 C 101.664062 282.714844 90.972656 272.015625 90.972656 258.820312 C 90.972656 248.359375 105.984375 224.332031 112.203125 214.824219 C 113.457031 212.910156 116.25 212.910156 117.503906 214.824219 C 123.722656 224.332031 138.734375 248.359375 138.734375 258.820312 Z M 138.734375 258.820312 " fill-opacity="1" fill-rule="nonzero"/><path fill="#377de2" d="M 117.503906 214.824219 C 116.597656 213.445312 114.894531 213.058594 113.542969 213.671875 C 120.542969 225.019531 129.882812 241.710938 129.882812 249.964844 C 129.882812 263.160156 119.191406 273.859375 106.003906 273.859375 C 101.679688 273.859375 97.628906 272.710938 94.132812 270.699219 C 98.25 277.878906 105.988281 282.714844 114.855469 282.714844 C 128.042969 282.714844 138.734375 272.015625 138.734375 258.820312 C 138.734375 248.359375 123.722656 224.332031 117.503906 214.824219 Z M 117.503906 214.824219 " fill-opacity="1" fill-rule="nonzero"/><path fill="#478cf7" d="M 220.160156 258.820312 C 220.160156 272.015625 209.46875 282.714844 196.277344 282.714844 C 183.089844 282.714844 172.398438 272.015625 172.398438 258.820312 C 172.398438 248.359375 187.410156 224.332031 193.628906 214.824219 C 194.882812 212.910156 197.675781 212.910156 198.929688 214.824219 C 205.148438 224.332031 220.160156 248.359375 220.160156 258.820312 Z M 220.160156 258.820312 " fill-opacity="1" fill-rule="nonzero"/><path fill="#377de2" d="M 198.925781 214.824219 C 198.023438 213.445312 196.320312 213.058594 194.96875 213.671875 C 201.96875 225.019531 211.308594 241.710938 211.308594 249.964844 C 211.308594 263.160156 200.617188 273.859375 187.425781 273.859375 C 183.105469 273.859375 179.050781 272.710938 175.554688 270.699219 C 179.675781 277.878906 187.414062 282.714844 196.277344 282.714844 C 209.46875 282.714844 220.160156 272.015625 220.160156 258.820312 C 220.160156 248.359375 205.148438 224.332031 198.925781 214.824219 Z M 198.925781 214.824219 " fill-opacity="1" fill-rule="nonzero"/><g clip-path="url(#a1d2116b7d)"><path fill="#478cf7" d="M 260.871094 341.554688 C 260.871094 354.75 250.179688 365.449219 236.992188 365.449219 C 223.800781 365.449219 213.109375 354.75 213.109375 341.554688 C 213.109375 331.09375 228.121094 307.066406 234.339844 297.558594 C 235.59375 295.644531 238.386719 295.644531 239.640625 297.558594 C 245.859375 307.066406 260.871094 331.09375 260.871094 341.554688 Z M 260.871094 341.554688 " fill-opacity="1" fill-rule="nonzero"/></g><g clip-path="url(#997b60d113)"><path fill="#377de2" d="M 239.640625 297.558594 C 238.734375 296.179688 237.03125 295.792969 235.683594 296.40625 C 242.679688 307.753906 252.019531 324.445312 252.019531 332.699219 C 252.019531 345.894531 241.328125 356.589844 228.140625 356.589844 C 223.820312 356.589844 219.765625 355.445312 216.269531 353.433594 C 220.386719 360.613281 228.125 365.449219 236.992188 365.449219 C 250.179688 365.449219 260.871094 354.75 260.871094 341.554688 C 260.871094 331.09375 245.859375 307.066406 239.640625 297.558594 Z M 239.640625 297.558594 " fill-opacity="1" fill-rule="nonzero"/></g><path fill="#ffa91a" d="M 273.292969 112.558594 L 295.972656 75.539062 C 297.117188 73.667969 295.773438 71.269531 293.582031 71.269531 L 264.929688 71.269531 C 263.875 71.269531 262.910156 71.859375 262.433594 72.800781 L 237.617188 121.511719 C 236.667969 123.378906 238.019531 125.585938 240.113281 125.585938 L 258.027344 125.585938 C 260.121094 125.585938 261.476562 127.796875 260.523438 129.664062 L 241.46875 167.070312 C 240.519531 168.933594 241.875 171.148438 243.964844 171.148438 L 252.675781 171.148438 C 253.472656 171.148438 254.230469 170.808594 254.761719 170.210938 L 298.265625 121.5 C 299.878906 119.691406 298.597656 116.828125 296.175781 116.828125 L 275.683594 116.828125 C 273.492188 116.828125 272.148438 114.425781 273.292969 112.558594 Z M 273.292969 112.558594 " fill-opacity="1" fill-rule="nonzero"/><path fill="#ffffff" d="M 312.582031 180.125 L 328.511719 154.117188 C 329.316406 152.804688 328.375 151.117188 326.835938 151.117188 L 306.703125 151.117188 C 305.964844 151.117188 305.285156 151.53125 304.949219 152.191406 L 287.515625 186.414062 C 286.847656 187.726562 287.800781 189.277344 289.269531 189.277344 L 301.855469 189.277344 C 303.328125 189.277344 304.277344 190.832031 303.609375 192.140625 L 290.226562 218.417969 C 289.558594 219.730469 290.507812 221.285156 291.980469 221.285156 L 298.097656 221.285156 C 298.660156 221.285156 299.191406 221.042969 299.566406 220.625 L 330.128906 186.40625 C 331.261719 185.136719 330.363281 183.121094 328.660156 183.121094 L 314.261719 183.121094 C 312.722656 183.121094 311.777344 181.4375 312.582031 180.125 Z M 312.582031 180.125 " fill-opacity="1" fill-rule="nonzero"/></svg>